<svg width="14" height="15" viewBox="0 0 14 15" fill="none" xmlns="http://www.w3.org/2000/svg">
<path d="M12.75 6.25H8.5C8.4337 6.25 8.37011 6.22366 8.32322 6.17678C8.27634 6.12989 8.25 6.0663 8.25 6V1.75C8.25 1.05969 7.69031 0.5 7 0.5C6.30969 0.5 5.75 1.05969 5.75 1.75V6C5.75 6.0663 5.72366 6.12989 5.67678 6.17678C5.62989 6.22366 5.5663 6.25 5.5 6.25H1.25C0.559687 6.25 0 6.80969 0 7.5C0 8.19031 0.559687 8.75 1.25 8.75H5.5C5.5663 8.75 5.62989 8.77634 5.67678 8.82322C5.72366 8.87011 5.75 8.9337 5.75 9V13.25C5.75 13.9403 6.30969 14.5 7 14.5C7.69031 14.5 8.25 13.9403 8.25 13.25V9C8.25 8.9337 8.27634 8.87011 8.32322 8.82322C8.37011 8.77634 8.4337 8.75 8.5 8.75H12.75C13.4403 8.75 14 8.19031 14 7.5C14 6.80969 13.4403 6.25 12.75 6.25Z" fill="white"/>
</svg>
