<svg width="24" height="24" viewBox="0 0 24 24" fill="none" xmlns="http://www.w3.org/2000/svg">
<path d="M15.68 12.078L10.8226 16.9354L8.3206 14.4326C8.24153 14.3507 8.14695 14.2854 8.04237 14.2405C7.9378 14.1956 7.82533 14.1719 7.71151 14.1709C7.5977 14.1699 7.48484 14.1916 7.3795 14.2347C7.27416 14.2778 7.17846 14.3415 7.09798 14.4219C7.0175 14.5024 6.95385 14.5981 6.91075 14.7035C6.86766 14.8088 6.84597 14.9217 6.84696 15.0355C6.84795 15.1493 6.87159 15.2618 6.91651 15.3663C6.96143 15.4709 7.02673 15.5655 7.1086 15.6446L10.2166 18.7534C10.296 18.8333 10.3904 18.8967 10.4944 18.9399C10.5984 18.9832 10.71 19.0055 10.8226 19.0055C10.9352 19.0055 11.0468 18.9832 11.1508 18.9399C11.2548 18.8967 11.3492 18.8333 11.4286 18.7534L16.892 13.29C16.9739 13.2109 17.0392 13.1163 17.0841 13.0118C17.129 12.9072 17.1527 12.7947 17.1537 12.6809C17.1547 12.5671 17.133 12.4542 17.0899 12.3489C17.0468 12.2436 16.9831 12.1479 16.9027 12.0674C16.8222 11.9869 16.7265 11.9232 16.6211 11.8802C16.5158 11.8371 16.4029 11.8154 16.2891 11.8164C16.1753 11.8173 16.0628 11.841 15.9583 11.8859C15.8537 11.9308 15.7591 11.9961 15.68 12.078Z" fill="#271481"/>
<path d="M19.7143 1.68H18.4286V0.857143C18.4286 0.629814 18.3383 0.411797 18.1775 0.251051C18.0168 0.0903058 17.7988 0 17.5714 0C17.3441 0 17.1261 0.0903058 16.9653 0.251051C16.8046 0.411797 16.7143 0.629814 16.7143 0.857143V1.68H7.28571V0.857143C7.28571 0.629814 7.19541 0.411797 7.03466 0.251051C6.87392 0.0903058 6.6559 0 6.42857 0C6.20124 0 5.98323 0.0903058 5.82248 0.251051C5.66173 0.411797 5.57143 0.629814 5.57143 0.857143V1.68H4.28571C1.92257 1.68 0 3.60257 0 5.96571V19.7143C0 22.0774 1.92257 24 4.28571 24H19.7143C22.0774 24 24 22.0774 24 19.7143V5.96571C24 3.60257 22.0774 1.68 19.7143 1.68ZM1.71429 5.96571C1.71429 4.548 2.868 3.39429 4.28571 3.39429H5.57143V4.21714C5.57143 4.44447 5.66173 4.66249 5.82248 4.82323C5.98323 4.98398 6.20124 5.07429 6.42857 5.07429C6.6559 5.07429 6.87392 4.98398 7.03466 4.82323C7.19541 4.66249 7.28571 4.44447 7.28571 4.21714V3.39429H16.7143V4.21714C16.7143 4.44447 16.8046 4.66249 16.9653 4.82323C17.1261 4.98398 17.3441 5.07429 17.5714 5.07429C17.7988 5.07429 18.0168 4.98398 18.1775 4.82323C18.3383 4.66249 18.4286 4.44447 18.4286 4.21714V3.39429H19.7143C21.132 3.39429 22.2857 4.548 22.2857 5.96571V6.83143H1.71429V5.96571ZM19.7143 22.2857H4.28571C2.868 22.2857 1.71429 21.132 1.71429 19.7143V8.54571H22.2857V19.7143C22.2857 21.132 21.132 22.2857 19.7143 22.2857Z" fill="#271481"/>
</svg>
