<svg width="20" height="20" viewBox="0 0 20 20" fill="none" xmlns="http://www.w3.org/2000/svg">
<path fill-rule="evenodd" clip-rule="evenodd" d="M9.33333 2C9.33333 0.896 8.43733 0 7.33333 0H2C0.896 0 0 0.896 0 2V7.33333C0 8.43733 0.896 9.33333 2 9.33333H7.33333C8.43733 9.33333 9.33333 8.43733 9.33333 7.33333V2ZM8 2V7.33333C8 7.70133 7.70133 8 7.33333 8H2C1.632 8 1.33333 7.70133 1.33333 7.33333V2C1.33333 1.632 1.632 1.33333 2 1.33333H7.33333C7.70133 1.33333 8 1.632 8 2ZM9.33333 12.6667C9.33333 11.5627 8.43733 10.6667 7.33333 10.6667H2C0.896 10.6667 0 11.5627 0 12.6667V18C0 19.104 0.896 20 2 20H7.33333C8.43733 20 9.33333 19.104 9.33333 18V12.6667ZM8 12.6667V18C8 18.368 7.70133 18.6667 7.33333 18.6667H2C1.632 18.6667 1.33333 18.368 1.33333 18V12.6667C1.33333 12.2987 1.632 12 2 12H7.33333C7.70133 12 8 12.2987 8 12.6667ZM20 2C20 0.896 19.104 0 18 0H12.6667C11.5627 0 10.6667 0.896 10.6667 2V7.33333C10.6667 8.43733 11.5627 9.33333 12.6667 9.33333H18C19.104 9.33333 20 8.43733 20 7.33333V2ZM18.6667 2V7.33333C18.6667 7.70133 18.368 8 18 8H12.6667C12.2987 8 12 7.70133 12 7.33333V2C12 1.632 12.2987 1.33333 12.6667 1.33333H18C18.368 1.33333 18.6667 1.632 18.6667 2ZM20 12.6667C20 11.5627 19.104 10.6667 18 10.6667H12.6667C11.5627 10.6667 10.6667 11.5627 10.6667 12.6667V18C10.6667 19.104 11.5627 20 12.6667 20H18C19.104 20 20 19.104 20 18V12.6667ZM18.6667 12.6667V18C18.6667 18.368 18.368 18.6667 18 18.6667H12.6667C12.2987 18.6667 12 18.368 12 18V12.6667C12 12.2987 12.2987 12 12.6667 12H18C18.368 12 18.6667 12.2987 18.6667 12.6667Z" fill="#505050"/>
</svg>
