<svg width="13" height="9" viewBox="0 0 13 9" fill="none" xmlns="http://www.w3.org/2000/svg">
<path d="M6.86595 7.83353L12.206 2.49338C12.3296 2.36987 12.3977 2.20499 12.3977 2.02919C12.3977 1.85339 12.3296 1.68851 12.206 1.565L11.8128 1.17173C11.5566 0.915833 11.1403 0.915833 10.8844 1.17173L6.40019 5.65599L1.91096 1.16676C1.78735 1.04325 1.62257 0.975052 1.44687 0.975052C1.27097 0.975052 1.10619 1.04325 0.98248 1.16676L0.589411 1.56002C0.465802 1.68363 0.397705 1.84841 0.397705 2.02421C0.397705 2.20002 0.465802 2.36489 0.589411 2.48841L5.93434 7.83353C6.05834 7.95734 6.2239 8.02534 6.3999 8.02495C6.57658 8.02534 6.74204 7.95734 6.86595 7.83353Z" fill="#838383"/>
</svg>
