<svg width="9" height="15" viewBox="0 0 9 15" fill="none" xmlns="http://www.w3.org/2000/svg">
<path d="M8.00156 6.95372L1.77138 0.723657C1.62729 0.579447 1.43493 0.5 1.22983 0.5C1.02472 0.5 0.832368 0.579447 0.688271 0.723657L0.229462 1.18235C-0.0690888 1.48124 -0.0690888 1.96703 0.229462 2.26547L5.4611 7.4971L0.223657 12.7345C0.0795604 12.8787 0 13.071 0 13.276C0 13.4812 0.0795604 13.6734 0.223657 13.8178L0.682466 14.2763C0.826676 14.4206 1.01892 14.5 1.22402 14.5C1.42913 14.5 1.62148 14.4206 1.76558 14.2763L8.00156 8.04059C8.146 7.89592 8.22533 7.70277 8.22488 7.49744C8.22533 7.29131 8.146 7.09827 8.00156 6.95372Z" fill="#838383"/>
</svg>
