<svg width="13" height="12" viewBox="0 0 13 12" fill="none" xmlns="http://www.w3.org/2000/svg">
<path d="M6.5 0C3.19147 0 0.5 2.69147 0.5 6C0.5 9.30853 3.19147 12 6.5 12C9.80853 12 12.5 9.30853 12.5 6C12.5 2.69147 9.80853 0 6.5 0Z" fill="#D2362B"/>
<path d="M8.70972 7.50247C8.90518 7.69803 8.90518 8.01399 8.70972 8.20953C8.66333 8.25603 8.60822 8.29291 8.54754 8.31805C8.48686 8.34319 8.42182 8.35609 8.35614 8.35602C8.22817 8.35602 8.10018 8.30703 8.00265 8.20953L6.50019 6.70698L4.99773 8.20956C4.95136 8.25605 4.89625 8.29292 4.83559 8.31806C4.77492 8.3432 4.70989 8.35611 4.64422 8.35604C4.57855 8.35611 4.51351 8.3432 4.45283 8.31807C4.39216 8.29293 4.33705 8.25605 4.29067 8.20956C4.0952 8.01399 4.0952 7.69803 4.29067 7.50247L5.79322 6.00001L4.29064 4.49755C4.09518 4.30199 4.09518 3.98602 4.29064 3.79049C4.48621 3.59502 4.80217 3.59502 4.99773 3.79049L6.50019 5.29304L8.00265 3.79046C8.19822 3.59499 8.51418 3.59499 8.70972 3.79046C8.90518 3.98602 8.90518 4.30199 8.70972 4.49755L7.20716 6.00001L8.70972 7.50247Z" fill="#FAFAFA"/>
</svg>
