<svg width="22" height="24" viewBox="0 0 22 24" fill="none" xmlns="http://www.w3.org/2000/svg">
<path d="M18.3603 17.2308H3.1726V19.0769H18.3603V17.2308ZM17.628 8.15754L18.0526 11.9052L19.8864 11.6972L19.4631 7.95077L17.628 8.15754ZM3.48029 11.9052L3.90491 8.15754L2.06983 7.95077L1.64645 11.6972L3.48029 11.9052ZM2.18429 14.912C2.90429 14.0652 3.35352 13.0166 3.48029 11.9052L1.64645 11.6972C1.5634 12.4413 1.26094 13.1439 0.777524 13.7157L2.18429 14.912ZM18.0526 11.9052C18.1767 13.0139 18.6279 14.0605 19.3486 14.912L20.7554 13.7157C20.2719 13.144 19.9694 12.4414 19.8864 11.6972L18.0526 11.9052ZM3.1726 17.2308C2.08091 17.2308 1.38799 15.8498 2.18429 14.912L0.777524 13.7157C-0.970168 15.7711 0.400908 19.0769 3.1726 19.0769V17.2308ZM18.3603 19.0769C21.132 19.0769 22.5018 15.7723 20.7554 13.7157L19.3486 14.912C20.1461 15.8498 19.452 17.2308 18.3603 17.2308V19.0769ZM19.4631 7.95077C18.9511 3.44 15.2317 0 10.7664 0V1.84615C14.2495 1.84615 17.2181 4.53785 17.628 8.15754L19.4631 7.95077ZM3.90491 8.15754C4.31475 4.53785 7.28337 1.84615 10.7664 1.84615V0C6.30122 0 2.58183 3.44 2.06983 7.95077L3.90491 8.15754ZM15.3228 20.9391C15.3696 20.8247 15.3931 20.7021 15.3917 20.5785C15.3903 20.4549 15.3641 20.3329 15.3146 20.2196C15.2652 20.1063 15.1935 20.0041 15.1038 19.9191C15.0141 19.834 14.9083 19.7679 14.7925 19.7245C14.6768 19.6812 14.5535 19.6615 14.43 19.6667C14.3065 19.6718 14.1853 19.7018 14.0736 19.7547C13.9619 19.8076 13.862 19.8823 13.7797 19.9746C13.6974 20.0668 13.6346 20.1747 13.5948 20.2917L15.3228 20.9391ZM7.93814 20.2917C7.89834 20.1747 7.83545 20.0668 7.75319 19.9746C7.67093 19.8823 7.57098 19.8076 7.45928 19.7547C7.34757 19.7018 7.22638 19.6718 7.10289 19.6667C6.9794 19.6615 6.85613 19.6812 6.74038 19.7245C6.62464 19.7679 6.51879 19.834 6.4291 19.9191C6.33941 20.0041 6.26771 20.1063 6.21826 20.2196C6.1688 20.3329 6.1426 20.4549 6.14121 20.5785C6.13981 20.7021 6.16326 20.8247 6.21014 20.9391L7.93814 20.2917ZM13.5948 20.2917C13.1972 21.3502 12.1018 22.1538 10.7664 22.1538V24C12.8403 24 14.6458 22.7483 15.3228 20.9391L13.5948 20.2917ZM10.7664 22.1538C9.43106 22.1538 8.33568 21.3514 7.93814 20.2917L6.21014 20.9391C6.88706 22.7483 8.6926 24 10.7664 24V22.1538Z" fill="#747474"/>
</svg>
