<svg width="20" height="20" viewBox="0 0 20 20" fill="none" xmlns="http://www.w3.org/2000/svg">
<path fill-rule="evenodd" clip-rule="evenodd" d="M7.5 8.33328C5.2025 8.33328 3.33328 6.46422 3.33328 4.16672C3.33328 1.86922 5.2025 0 7.5 0C9.7975 0 11.6667 1.86922 11.6667 4.16672C11.6667 6.46422 9.7975 8.33328 7.5 8.33328ZM7.5 1.25C5.89172 1.25 4.58328 2.55828 4.58328 4.16672C4.58328 5.775 5.89172 7.08328 7.5 7.08328C9.10828 7.08328 10.4167 5.775 10.4167 4.16672C10.4167 2.55828 9.10828 1.25 7.5 1.25ZM7.88332 17.5H0.625C0.28 17.5 0 17.22 0 16.875V13.9583C0 11.7758 1.77578 10 3.95828 10H8.70836C9.05336 10 9.33336 10.28 9.33336 10.625C9.33336 10.97 9.05336 11.25 8.70836 11.25H3.95828C2.46504 11.25 1.25 12.465 1.25 13.9583V16.25H7.88332C8.22832 16.25 8.50832 16.53 8.50832 16.875C8.50832 17.22 8.22832 17.5 7.88332 17.5ZM14.5835 20C11.5969 20 9.1669 17.57 9.1669 14.5833C9.1669 11.5967 11.5969 9.16672 14.5835 9.16672C17.5702 9.16672 20.0002 11.5967 20.0002 14.5833C20.0002 17.57 17.5702 20 14.5835 20ZM14.5835 10.4167C12.286 10.4167 10.4169 12.2858 10.4169 14.5833C10.4169 16.8808 12.286 18.75 14.5835 18.75C16.881 18.75 18.7502 16.8808 18.7502 14.5833C18.7502 12.2858 16.881 10.4167 14.5835 10.4167ZM14.3378 12.6017C14.4029 12.5366 14.4912 12.5 14.5833 12.5C14.6754 12.5 14.7637 12.5366 14.8289 12.6017C14.894 12.6668 14.9306 12.7551 14.9306 12.8472V14.2361H16.3194C16.4115 14.2361 16.4999 14.2727 16.565 14.3378C16.6301 14.4029 16.6667 14.4912 16.6667 14.5833C16.6667 14.6754 16.6301 14.7637 16.565 14.8289C16.4999 14.894 16.4115 14.9306 16.3194 14.9306H14.9306V16.3194C14.9306 16.4115 14.894 16.4999 14.8289 16.565C14.7637 16.6301 14.6754 16.6667 14.5833 16.6667C14.4912 16.6667 14.4029 16.6301 14.3378 16.565C14.2727 16.4999 14.2361 16.4115 14.2361 16.3194V14.9306H12.8472C12.7551 14.9306 12.6668 14.894 12.6017 14.8289C12.5366 14.7637 12.5 14.6754 12.5 14.5833C12.5 14.4912 12.5366 14.4029 12.6017 14.3378C12.6668 14.2727 12.7551 14.2361 12.8472 14.2361H14.2361V12.8472C14.2361 12.7551 14.2727 12.6668 14.3378 12.6017Z" fill="white"/>
</svg>
