<svg width="11" height="12" viewBox="0 0 11 12" fill="none" xmlns="http://www.w3.org/2000/svg">
<path d="M5.5 0.5C4.4122 0.5 3.34884 0.822569 2.44437 1.42692C1.5399 2.03126 0.834947 2.89025 0.418665 3.89524C0.00238308 4.90023 -0.106535 6.0061 0.105683 7.073C0.317902 8.13989 0.841726 9.1199 1.61092 9.88909C2.3801 10.6583 3.36011 11.1821 4.427 11.3943C5.4939 11.6065 6.59977 11.4976 7.60476 11.0813C8.60975 10.6651 9.46874 9.9601 10.0731 9.05563C10.6774 8.15116 11 7.0878 11 6C10.9983 4.54184 10.4183 3.14389 9.38719 2.11281C8.35611 1.08174 6.95816 0.50172 5.5 0.5ZM7.3535 7.8535C7.25974 7.94723 7.13258 7.99989 7 7.99989C6.86742 7.99989 6.74027 7.94723 6.6465 7.8535L5.1465 6.3535C5.05273 6.25975 5.00003 6.1326 5 6V3C5 2.86739 5.05268 2.74021 5.14645 2.64645C5.24022 2.55268 5.36739 2.5 5.5 2.5C5.63261 2.5 5.75979 2.55268 5.85355 2.64645C5.94732 2.74021 6 2.86739 6 3V5.793L7.3535 7.1465C7.44724 7.24026 7.49989 7.36742 7.49989 7.5C7.49989 7.63258 7.44724 7.75973 7.3535 7.8535Z" fill="#CE7B06"/>
</svg>
