<svg width="21" height="17" viewBox="0 0 21 17" fill="none" xmlns="http://www.w3.org/2000/svg">
<path d="M19.4701 2.78571H1.1453C0.841547 2.78571 0.550236 2.66531 0.33545 2.45098C0.120665 2.23665 0 1.94596 0 1.64286C0 1.33975 0.120665 1.04906 0.33545 0.834735C0.550236 0.620408 0.841547 0.5 1.1453 0.5H19.4701C19.7738 0.5 20.0651 0.620408 20.2799 0.834735C20.4947 1.04906 20.6154 1.33975 20.6154 1.64286C20.6154 1.94596 20.4947 2.23665 20.2799 2.45098C20.0651 2.66531 19.7738 2.78571 19.4701 2.78571ZM17.1795 8.5C17.1795 8.1969 17.0588 7.90621 16.844 7.69188C16.6293 7.47755 16.3379 7.35714 16.0342 7.35714H4.5812C4.27744 7.35714 3.98613 7.47755 3.77135 7.69188C3.55656 7.90621 3.4359 8.1969 3.4359 8.5C3.4359 8.80311 3.55656 9.09379 3.77135 9.30812C3.98613 9.52245 4.27744 9.64286 4.5812 9.64286H16.0342C16.3379 9.64286 16.6293 9.52245 16.844 9.30812C17.0588 9.09379 17.1795 8.80311 17.1795 8.5ZM13.7436 15.3571C13.7436 15.054 13.6229 14.7633 13.4081 14.549C13.1934 14.3347 12.902 14.2143 12.5983 14.2143H8.01709C7.71334 14.2143 7.42203 14.3347 7.20724 14.549C6.99246 14.7633 6.87179 15.054 6.87179 15.3571C6.87179 15.6602 6.99246 15.9509 7.20724 16.1653C7.42203 16.3796 7.71334 16.5 8.01709 16.5H12.5983C12.902 16.5 13.1934 16.3796 13.4081 16.1653C13.6229 15.9509 13.7436 15.6602 13.7436 15.3571Z" fill="#2E2559"/>
</svg>
