<svg width="24" height="24" viewBox="0 0 24 24" fill="none" xmlns="http://www.w3.org/2000/svg">
<rect width="24" height="24" rx="12" fill="#47DA60"/>
<path d="M10.492 16.8067C10.4311 16.8679 10.3587 16.9166 10.2789 16.9497C10.1991 16.9829 10.1136 17 10.0272 17C9.94076 17 9.8552 16.9829 9.77542 16.9497C9.69564 16.9166 9.6232 16.8679 9.56228 16.8067L5.84981 13.0935C5.66491 12.9086 5.56104 12.6577 5.56104 12.3962C5.56104 12.1347 5.66491 11.8839 5.84981 11.6989L6.31469 11.234C6.49965 11.0491 6.75048 10.9452 7.01201 10.9452C7.27355 10.9452 7.52437 11.0491 7.70933 11.234L10.0272 13.5518L16.2902 7.28878C16.4752 7.10387 16.726 7 16.9875 7C17.2491 7 17.4999 7.10387 17.6849 7.28878L18.1497 7.75366C18.3347 7.93862 18.4385 8.18944 18.4385 8.45098C18.4385 8.71251 18.3347 8.96334 18.1497 9.1483L10.492 16.8067Z" fill="white"/>
</svg>
