<svg width="30" height="22" viewBox="0 0 30 22" fill="none" xmlns="http://www.w3.org/2000/svg">
<path d="M6.5746 10.5526C4.77176 10.5526 3.30511 9.09926 3.30511 7.31346C3.30511 5.52749 4.77176 4.07414 6.5746 4.07414C8.37727 4.07414 9.84364 5.52727 9.84364 7.31346C9.84364 9.09948 8.37727 10.5526 6.5746 10.5526ZM6.5746 4.98323C5.2729 4.98323 4.2142 6.02863 4.2142 7.31346C4.2142 8.59812 5.2729 9.64346 6.5746 9.64346C7.87591 9.64346 8.93455 8.59812 8.93455 7.31346C8.93455 6.02863 7.87591 4.98323 6.5746 4.98323ZM7.88989 19.521H2.18807C1.53295 19.521 1 18.9914 1 18.3403V16.8535C1 13.8098 3.50068 11.3333 6.5746 11.3333C7.78358 11.3333 8.93438 11.7106 9.90159 12.4242C9.99859 12.4958 10.0632 12.603 10.0811 12.7223C10.0991 12.8415 10.069 12.963 9.99744 13.06C9.92582 13.1569 9.81865 13.2215 9.69947 13.2395C9.5803 13.2574 9.45886 13.2274 9.36182 13.1559C8.55193 12.5585 7.58824 12.2424 6.5746 12.2424C4.00205 12.2424 1.90909 14.3111 1.90909 16.8535V18.3403C1.90909 18.4899 2.03426 18.6118 2.18807 18.6118H7.89011C8.14091 18.6118 8.34466 18.8153 8.34466 19.0664C8.34466 19.3172 8.14091 19.5209 7.88989 19.5209V19.521ZM27.9938 19.1769H22.2919C22.0411 19.1769 21.8374 18.9734 21.8374 18.7224C21.8374 18.4716 22.0411 18.2678 22.2919 18.2678H27.994C28.1478 18.2678 28.273 18.1462 28.273 17.9966V16.5098C28.273 13.967 26.18 11.8986 23.6074 11.8986C22.533 11.8986 21.4841 12.2686 20.6538 12.9407C20.4589 13.0985 20.1728 13.0685 20.0145 12.8735C19.8568 12.6783 19.8865 12.392 20.082 12.234C21.0735 11.4317 22.3255 10.9895 23.6074 10.9895C26.6811 10.9895 29.1818 13.4658 29.1818 16.5098V17.9966C29.1818 18.6474 28.6489 19.1769 27.9938 19.1769ZM23.6072 10.3279C21.8045 10.3279 20.3382 8.87488 20.3382 7.08886C20.3382 5.30284 21.8045 3.84954 23.6072 3.84954C25.4101 3.84954 26.8767 5.30267 26.8767 7.08886C26.8767 8.87505 25.4098 10.3279 23.6072 10.3279ZM23.6072 4.75863C22.3059 4.75863 21.2473 5.80403 21.2473 7.08886C21.2473 8.37369 22.3059 9.41886 23.6072 9.41886C24.9089 9.41886 25.9676 8.37369 25.9676 7.08886C25.9676 5.80403 24.9087 4.75863 23.6072 4.75863Z" fill="#271481" stroke="#271481" stroke-width="0.4"/>
<path d="M21.2601 21H8.92167C8.10201 21 7.4353 20.3382 7.4353 19.5245V17.4334C7.4353 13.2541 10.8692 9.85409 15.0909 9.85409C19.3125 9.85409 22.7464 13.2541 22.7464 17.4334V19.5245C22.7464 20.3381 22.0797 21 21.2601 21ZM15.0909 10.7634C11.3708 10.7634 8.34439 13.7557 8.34439 17.4335V19.5247C8.34439 19.837 8.60337 20.0911 8.92167 20.0911H21.2598C21.5781 20.0911 21.8371 19.837 21.8371 19.5247V17.4335C21.8373 13.7557 18.8109 10.7634 15.0909 10.7634ZM14.9329 9.32295C12.6166 9.32295 10.7318 7.45619 10.7318 5.16125C10.7318 2.86659 12.6164 1 14.9329 1C17.2496 1 19.1341 2.86676 19.1341 5.16148C19.1341 7.45636 17.2493 9.32295 14.9329 9.32295H14.9329ZM14.9329 1.90909C13.1177 1.90909 11.6409 3.36818 11.6409 5.16148C11.6409 6.95506 13.1177 8.41409 14.9329 8.41409C16.7481 8.41409 18.225 6.955 18.225 5.16148C18.225 3.36818 16.7481 1.90909 14.9329 1.90909H14.9329Z" fill="#271481" stroke="#271481" stroke-width="0.4"/>
</svg>
